<svg xmlns="http://www.w3.org/2000/svg" class="css-1j8o68f" viewBox="0 0 320 100">
  <g fill="#8b5cf6">
    <path d="M25.15 28.1 13.23 16.17A49.8 49.8 0 0 0 .05 47.93H16.9a33.2 33.2 0 0 1 8.26-19.83zM25 72.06 13.23 83.83A49.68 49.68 0 0 1 .06 52.08h16.82A33.17 33.17 0 0 0 25 72.06ZM16.18 86.79a49.8 49.8 0 0 0 31.74 13.16v-16.5a33.2 33.2 0 0 1-19.99-8.42zM99.94 47.92h-16.5a33.15 33.15 0 0 0-8.4-19.98L86.8 16.19a49.81 49.81 0 0 1 13.15 31.73ZM47.92.06V16.9a33.13 33.13 0 0 0-19.82 8.25L16.17 13.23A49.78 49.78 0 0 1 47.92.06ZM83.84 13.24A49.8 49.8 0 0 0 52.09.05v16.82A33.2 33.2 0 0 1 72.07 25zM100 49.8v.4-.4ZM50 100h.07-.14.07ZM83.83 86.77a49.73 49.73 0 0 1-31.75 13.17V83.46c7.71-.44 14.71-3.48 20.15-8.27zM0 50.32v-.64.64zM50 0l-.41.01h.82L50 0ZM75.18 72.24l11.6 11.6a49.8 49.8 0 0 0 13.17-31.75H83.46a33.2 33.2 0 0 1-8.28 20.15zM68.92 62.67a6.25 6.25 0 1 1-12-2.46l-2.71-2.73a8.06 8.06 0 0 1-8.63-.13l-2.41 2.42c.46.88.75 1.85.75 2.9a6.25 6.25 0 1 1-3.8-5.75l2.6-2.6a8.1 8.1 0 0 1 .13-8.17l-2.72-2.73a6.25 6.25 0 1 1 3.8-5.75c-.01 1.06-.3 2.02-.76 2.9l2.62 2.62A8.24 8.24 0 0 1 50.02 42c1.4 0 2.75.4 3.98 1.06l2.75-2.77a6.27 6.27 0 0 1 5.75-8.7 6.26 6.26 0 0 1 0 12.5c-1.04 0-2.02-.3-2.9-.76l-2.56 2.59a8.04 8.04 0 0 1 .1 8.63l2.63 2.62a6.23 6.23 0 0 1 2.9-.75 6.27 6.27 0 0 1 6.25 6.25z"/>
  </g>
  <path fill="#c4b5fd" d="M139.37 47.97q-3.32.81-6.1 3.82-2.77 3-2.77 8.8v18.75H119V36.9h11.5v5.63q2.85-3.78 6.98-5.13 4.13-1.35 7.52-1.27v11.26q-2.31-.23-5.63.58zm21.03 29.4q-5.29-2.97-8.38-8.06-3.08-5.1-3.08-11.12 0-5.94 3.08-11.03 3.1-5.1 8.38-8.06 5.28-2.97 11.53-2.97 6.25 0 11.58 2.97 5.32 2.97 8.45 8.06 3.12 5.1 3.12 11.03 0 6.02-3.12 11.12-3.13 5.09-8.45 8.06-5.33 2.97-11.58 2.97t-11.53-2.97zm5.67-29.55q-2.7 1.58-4.25 4.32-1.54 2.74-1.54 6.05 0 3.48 1.5 6.22 1.51 2.74 4.17 4.32t5.98 1.58q3.24 0 5.9-1.58 2.67-1.58 4.21-4.36 1.54-2.78 1.54-6.18 0-3.31-1.54-6.05-1.54-2.74-4.2-4.32-2.67-1.59-5.9-1.59-3.17 0-5.87 1.59zM204.57 21h11.58v58.34h-11.58zm22.69 0h11.57v58.34h-11.57zm33.4 9.61q-1.85 1.81-4.47 1.81-2.7 0-4.59-1.81-1.89-1.81-1.89-4.44 0-2.54 1.89-4.36 1.9-1.81 4.6-1.81 2.61 0 4.47 1.81 1.85 1.82 1.85 4.36 0 2.63-1.85 4.44zm-10.26 6.37h11.58v42.36H250.4zm23 42.36V21h11.42v20.3q1.77-2.32 5.13-3.82t7.75-1.5q6.56 0 11.38 2.92 4.83 2.94 7.37 7.99Q319 51.94 319 58.12q0 6.17-2.55 11.22-2.54 5.06-7.37 7.99-4.82 2.93-11.38 2.93-4.24 0-7.83-1.58t-5.05-3.59v4.25Zm14.08-12.46q3.12 3.2 8.53 3.2 5.24 0 8.45-3.4 3.2-3.4 3.2-8.56 0-5.33-3.13-8.68-3.12-3.36-8.52-3.36-5.33 0-8.5 3.36-3.16 3.35-3.16 8.68 0 5.55 3.13 8.76z"/>
</svg>
