<?xml version="1.0" standalone="no"?>
<!DOCTYPE svg PUBLIC "-//W3C//DTD SVG 20010904//EN"
 "http://www.w3.org/TR/2001/REC-SVG-20010904/DTD/svg10.dtd">
<svg version="1.0" xmlns="http://www.w3.org/2000/svg"
 width="700.000000pt" height="700.000000pt" viewBox="0 0 700.000000 700.000000"
 preserveAspectRatio="xMidYMid meet">
<metadata>
Created by potrace 1.14, written by Peter Selinger 2001-2017
</metadata>
<g transform="translate(0.000000,700.000000) scale(0.100000,-0.100000)"
fill="#000000" stroke="none">
<path d="M3297 6995 c-1 -1 -40 -5 -87 -9 -112 -8 -309 -35 -380 -52 -14 -3
-38 -8 -55 -11 -92 -13 -425 -113 -545 -163 -30 -12 -68 -28 -85 -34 -76 -28
-353 -171 -461 -237 -184 -113 -334 -223 -493 -363 -31 -27 -57 -50 -58 -50
-1 -1 186 -190 416 -420 l418 -418 39 34 c114 102 351 255 510 328 141 66 381
148 484 166 14 3 57 11 95 19 39 7 102 16 140 20 39 3 81 8 95 11 l25 4 0 585
c0 322 -2 585 -5 586 -19 3 -50 5 -53 4z"/>
<path d="M3649 6981 c-1 -9 -2 -274 -2 -588 -2 -566 -2 -573 18 -574 161 -9
408 -57 565 -110 154 -51 174 -59 315 -129 153 -75 308 -173 425 -269 l75 -61
412 412 412 412 -29 26 c-99 88 -153 132 -224 186 -105 79 -292 204 -306 204
-5 0 -10 5 -10 10 0 6 -5 10 -10 10 -6 0 -29 12 -52 26 -74 47 -311 161 -438
212 -194 76 -400 140 -577 177 -128 26 -306 52 -418 61 -44 3 -97 7 -117 9
-30 2 -38 -1 -39 -14z"/>
<path d="M852 5785 c-278 -321 -505 -710 -644 -1100 -39 -109 -104 -323 -112
-371 -3 -13 -7 -32 -10 -42 -3 -9 -7 -29 -10 -45 -3 -15 -10 -55 -16 -90 -16
-89 -18 -105 -26 -156 -3 -25 -8 -57 -10 -71 -2 -13 -6 -58 -9 -100 -3 -41 -8
-94 -11 -117 -2 -24 -1 -44 3 -44 38 -6 1161 -3 1169 3 6 4 11 26 12 47 1 22
9 84 17 138 9 54 19 114 22 133 17 112 104 368 179 525 74 159 246 422 334
514 l23 23 -414 414 c-228 228 -418 414 -424 413 -5 0 -38 -33 -73 -74z"/>
<path d="M5663 5456 c-222 -222 -403 -407 -403 -410 0 -4 33 -48 74 -99 219
-273 400 -655 461 -972 19 -98 31 -178 41 -265 3 -30 10 -57 14 -60 6 -4 1117
-5 1142 -1 6 1 5 26 -7 161 -10 108 -24 218 -30 240 -2 8 -7 35 -10 60 -11 82
-54 263 -96 400 -98 325 -245 640 -432 920 -63 94 -175 247 -202 276 -5 6 -37
43 -70 82 -33 40 -64 71 -70 71 -5 0 -191 -182 -412 -403z"/>
<path d="M2530 4786 c-211 -60 -346 -251 -327 -461 17 -183 146 -336 327 -385
61 -17 166 -15 228 4 l52 15 95 -95 95 -96 -24 -47 c-71 -139 -75 -329 -11
-470 l26 -55 -91 -90 -91 -90 -51 17 c-72 23 -205 17 -279 -12 -158 -63 -265
-209 -276 -377 -14 -212 121 -399 329 -455 48 -12 149 -15 198 -4 36 8 135 51
158 69 119 94 183 216 184 350 0 66 -17 149 -41 193 -8 17 2 32 74 103 l85 84
28 -16 c147 -87 361 -96 516 -22 28 13 54 24 59 24 5 0 50 -41 99 -91 l90 -91
-12 -41 c-72 -241 67 -492 308 -556 104 -28 248 -5 342 54 57 36 126 112 154
170 85 175 57 360 -75 500 -129 136 -315 170 -500 91 -11 -5 -42 19 -107 85
l-91 91 25 49 c75 150 73 364 -6 505 l-27 49 89 91 90 91 56 -23 c104 -41 210
-36 318 17 150 74 248 240 239 408 -10 200 -139 357 -334 407 -205 52 -430
-87 -495 -305 -20 -69 -20 -172 0 -241 l16 -53 -95 -95 -95 -94 -66 26 c-36
15 -92 31 -124 37 -105 20 -250 -3 -350 -55 -17 -9 -33 -16 -35 -16 -3 0 -46
41 -96 91 -88 89 -90 92 -77 118 79 151 34 369 -101 496 -99 93 -276 138 -403
101z"/>
<path d="M11 3352 c-6 -2 -8 -20 -6 -40 2 -20 6 -73 10 -117 5 -72 13 -132 30
-250 32 -210 134 -585 200 -730 7 -16 23 -54 34 -83 27 -68 141 -295 194 -387
99 -171 281 -422 408 -563 l46 -50 412 412 412 412 -34 39 c-154 181 -314 459
-395 685 -34 92 -87 277 -96 331 -3 19 -10 61 -16 94 -11 63 -21 147 -29 240
-1 9 -1144 16 -1170 7z"/>
<path d="M5844 3345 c-1 -5 -5 -39 -9 -75 -33 -360 -151 -708 -346 -1022 -50
-81 -151 -220 -196 -268 -13 -14 -23 -29 -23 -35 0 -5 181 -191 402 -412 l402
-402 20 23 c329 356 594 820 745 1301 83 266 144 594 153 829 l3 70 -574 0
c-374 1 -575 -2 -577 -9z"/>
<path d="M1547 1340 c-224 -224 -407 -410 -407 -414 0 -8 45 -51 104 -99 21
-18 43 -37 50 -42 53 -49 330 -242 426 -298 349 -201 681 -330 1060 -411 63
-13 138 -27 165 -31 28 -4 59 -9 70 -10 78 -11 221 -25 275 -27 l64 -3 1 568
c0 313 -2 573 -5 578 -3 5 -33 11 -65 14 -33 3 -71 8 -85 10 -14 2 -45 6 -70
10 -116 18 -356 82 -445 119 -16 7 -61 26 -100 42 -167 69 -375 195 -536 324
l-96 77 -406 -407z"/>
<path d="M5005 1694 c-128 -111 -372 -264 -539 -337 -243 -105 -472 -166 -731
-192 -22 -2 -51 -4 -65 -4 l-25 -1 0 -575 c0 -376 3 -575 10 -576 27 -3 190 7
255 16 14 2 48 6 75 10 505 68 1016 263 1454 554 102 67 299 219 375 288 l54
50 -401 401 c-221 221 -407 402 -412 402 -6 -1 -28 -16 -50 -36z"/>
</g>
</svg>
