<svg xmlns="http://www.w3.org/2000/svg" preserveAspectRatio="xMidYMid" viewBox="0 0 256 256">
  <defs>
    <filter id="a" width="1" height="1" x="0" y="0" color-interpolation-filters="sRGB">
      <feGaussianBlur stdDeviation=".07"/>
    </filter>
  </defs>
  <path fill="#fff" d="m154.27 16.38-92.7 117.9-2.05 8.02L0 117.73c.34 14.86 1.46 31.83 4.41 45.15l45.07 18.6-4.6 17.99 45.2 22.6 99.56-34.72L235.82 73.7l-81.55-57.32z" filter="url(#a)"/>
  <path fill="#1a1918" d="M127.78 0C60.42 0 5.24 51.85 0 117.73l68.72 28.37a36.08 36.08 0 0 1 22.45-6.24l30.57-44.23V95a48.37 48.37 0 0 1 48.35-48.27A48.37 48.37 0 0 1 218.44 95 48.38 48.38 0 0 1 169 143.27l-43.6 31.04a36.3 36.3 0 0 1-71.83 8.86L4.42 162.88C19.63 216.61 69.08 256 127.78 256 198.6 256 256 198.69 256 128 256 57.3 198.6 0 127.78 0ZM80.35 194.22l-15.75-6.5a27.04 27.04 0 0 0 14.04 13.33 27.27 27.27 0 0 0 35.6-14.64c2.8-6.7 2.82-14.1.05-20.81a27.2 27.2 0 0 0-34.8-15.05l16.29 6.72a20 20 0 0 1 10.8 26.17 20.06 20.06 0 0 1-26.23 10.78zM202.31 95a32.24 32.24 0 0 0-32.22-32.17A32.24 32.24 0 0 0 137.87 95a32.23 32.23 0 0 0 64.44 0zm-56.37-.06a24.18 24.18 0 0 1 24.2-24.15 24.18 24.18 0 0 1 24.2 24.15 24.18 24.18 0 0 1-24.2 24.16 24.18 24.18 0 0 1-24.2-24.16z"/>
</svg>
